<svg width="15" height="15" viewBox="0 0 15 15" fill="none" xmlns="http://www.w3.org/2000/svg">
<path d="M8.74376 7.49978L14.7423 1.50161C15.0859 1.15804 15.0859 0.601235 14.7423 0.257672C14.3988 -0.0858907 13.8419 -0.0858907 13.4984 0.257672L7.50018 6.2562L1.50162 0.257672C1.15805 -0.0858907 0.601239 -0.0858907 0.257674 0.257672C-0.0858912 0.601235 -0.0858912 1.15804 0.257674 1.50161L6.25624 7.50013L0.257674 13.4983C-0.0858912 13.8419 -0.0858912 14.3987 0.257674 14.7422C0.429277 14.9138 0.654371 15 0.879465 15C1.10456 15 1.32965 14.9142 1.50126 14.7422L7.49982 8.74371L13.4984 14.7422C13.67 14.9138 13.8951 15 14.1202 15C14.3453 15 14.5704 14.9142 14.742 14.7422C15.0855 14.3987 15.0855 13.8419 14.742 13.4983L8.74376 7.49978Z" fill="black"/>
</svg>
