<svg width="23" height="14" viewBox="0 0 23 14" fill="none" xmlns="http://www.w3.org/2000/svg">
<path d="M1.67564 1.58747H8.33197C8.85856 1.58747 9.12694 1.36983 9.12694 0.940191C9.12694 0.635721 8.98937 0.271484 8.33197 0.271484H0.920136C0.158994 0.271484 0 0.703382 0 1.06536V12.9081C0 13.2701 0.160122 13.7031 0.920136 13.7031H8.33197C8.85856 13.7031 9.12694 13.4855 9.12694 13.0559C9.12694 12.7514 8.98937 12.3871 8.33197 12.3871H1.69706C1.37795 12.3871 1.31593 12.2699 1.31593 12.0691V7.42541H7.42987C8.13914 7.42541 8.24514 7.00705 8.24514 6.7567C8.24514 6.54921 8.16733 6.38006 8.02187 6.26955C7.88205 6.16355 7.68359 6.10942 7.42987 6.10942H1.31593V1.96862C1.31593 1.70137 1.42305 1.58747 1.67564 1.58747Z" fill="black"/>
<path d="M21.8564 0.207491C21.7437 0.0699154 21.5802 0 21.3704 0C20.9397 0 20.7017 0.275151 20.7017 0.77358V11.3782L12.1059 0.417238L12.1037 0.414982C11.8691 0.134193 11.7349 0 11.6053 0C11.4057 0 11.2534 0.0721711 11.1542 0.214257C11.064 0.342811 11.02 0.526621 11.02 0.77358V13.205C11.02 13.7316 11.2377 14 11.6673 14C11.9086 14 12.3145 13.8963 12.3145 13.205V2.59928L20.9092 13.5591C21.1359 13.8545 21.3276 13.9977 21.4933 13.9977C21.6647 13.9977 21.8034 13.9211 21.8925 13.7756C21.9737 13.6425 22.0154 13.4508 22.0154 13.2027V0.772453C22.0188 0.528877 21.9647 0.339428 21.8564 0.207491Z" fill="black"/>
</svg>
