<svg width="22" height="22" viewBox="0 0 22 22" fill="none" xmlns="http://www.w3.org/2000/svg">
<path d="M14.0287 10.8314C16.742 9.10075 17.534 5.50009 15.8033 2.78675C14.0727 0.073419 10.4647 -0.718581 7.75868 1.01209C5.04534 2.74275 4.25334 6.34342 5.98401 9.05675C6.43868 9.76809 7.04734 10.3768 7.75868 10.8314C4.35601 12.1368 2.10468 15.4001 2.10468 19.0448C2.10468 20.6214 3.38801 21.9048 4.96468 21.9048H16.8227C18.3993 21.9048 19.6827 20.6214 19.6827 19.0448C19.6827 15.4001 17.4313 12.1368 14.0287 10.8314ZM6.57068 5.93275C6.57068 3.54209 8.50668 1.61342 10.89 1.61342C13.2733 1.61342 15.2093 3.54942 15.2093 5.93275C15.2093 8.31609 13.2733 10.2521 10.89 10.2521C8.50668 10.2521 6.57068 8.31609 6.57068 5.93275ZM16.8227 20.4014H4.96468C4.21668 20.4014 3.60801 19.7928 3.60801 19.0448C3.60801 15.0188 6.87134 11.7554 10.8973 11.7554C14.9233 11.7554 18.1867 15.0188 18.1867 19.0448C18.1793 19.7928 17.5707 20.4014 16.8227 20.4014Z" fill="black"/>
</svg>
