<svg width="20" height="21" viewBox="0 0 20 21" fill="none" xmlns="http://www.w3.org/2000/svg">
<path d="M19.642 19.041L13.9898 12.9479C16.3342 9.83207 16.1736 5.22762 13.4759 2.31954C12.095 0.830879 10.2323 0 8.2733 0C6.31429 0 4.45162 0.830879 3.07068 2.31954C0.212444 5.40071 0.212444 10.4552 3.07068 13.5364C4.45162 15.0251 6.31429 15.8559 8.2733 15.8559C9.9754 15.8559 11.6133 15.2328 12.93 14.0903L18.5822 20.1834C18.7428 20.3565 18.9355 20.4258 19.1282 20.4258C19.3209 20.4258 19.5135 20.3565 19.6741 20.1834C19.931 19.8719 19.931 19.3526 19.642 19.041ZM4.13047 12.3939C1.85031 9.93593 1.85031 5.92001 4.13047 3.462C5.22238 2.28492 6.69967 1.62714 8.2733 1.62714C9.84694 1.62714 11.3242 2.28492 12.4161 3.462C14.6963 5.92001 14.6963 9.93593 12.4161 12.3939C11.3242 13.571 9.84694 14.2288 8.2733 14.2288C6.69967 14.2634 5.2545 13.6056 4.13047 12.3939Z" fill="black"/>
</svg>
