<svg width="22" height="22" viewBox="0 0 22 22" fill="none" xmlns="http://www.w3.org/2000/svg">
<g clip-path="url(#clip0_113_4)">
<path d="M19.5782 19.9444L18.4185 5.44948C18.3922 5.11949 18.1167 4.86537 17.7859 4.86537H15.459V4.44223C15.459 1.99284 13.4662 0 11.0166 0C8.56724 0 6.5744 1.99284 6.5744 4.44223V4.86537H4.24737C3.91655 4.86537 3.64128 5.11949 3.61493 5.44948L2.45527 19.9444C2.41298 20.4723 2.59492 20.9985 2.95411 21.3875C3.31347 21.7768 3.82339 22 4.35312 22H17.6803C18.21 22 18.7198 21.7768 19.0791 21.3875C19.4385 20.9985 19.6203 20.4724 19.5782 19.9444ZM7.84366 4.44223C7.84366 2.6926 9.267 1.26926 11.0166 1.26926C12.7663 1.26926 14.1898 2.6926 14.1898 4.44223V4.86537H7.84366V4.44223ZM18.1466 20.5266C18.0251 20.6582 17.8594 20.7307 17.6803 20.7307H4.35312C4.17386 20.7307 4.00836 20.6582 3.88684 20.5266C3.76515 20.3951 3.70623 20.2242 3.7205 20.0456L4.83333 6.13463H6.5744V8.46149C6.5744 8.81195 6.85856 9.09612 7.20903 9.09612C7.55949 9.09612 7.84366 8.81195 7.84366 8.46149V6.13463H14.1898V8.46149C14.1898 8.81195 14.4739 9.09612 14.8244 9.09612C15.1749 9.09612 15.459 8.81195 15.459 8.46149V6.13463H17.2001L18.3129 20.0456C18.3272 20.2242 18.2681 20.3951 18.1466 20.5266Z" fill="black"/>
<path d="M16.0936 17.1348H5.93974C5.58928 17.1348 5.30511 17.4189 5.30511 17.7694C5.30511 18.1199 5.58928 18.404 5.93974 18.404H16.0936C16.4441 18.404 16.7283 18.1199 16.7283 17.7694C16.7283 17.4189 16.4441 17.1348 16.0936 17.1348Z" fill="black"/>
</g>
<defs>
<clipPath id="clip0_113_4">
<rect width="22" height="22" fill="white"/>
</clipPath>
</defs>
</svg>
