<svg width="20" height="19" viewBox="0 0 20 19" fill="none" xmlns="http://www.w3.org/2000/svg">
<g id="i_heart 31" clip-path="url(#clip0_1655_9212)">
<path id="XMLID_7208_" d="M16.1263 0.975625C14.1471 0.433387 11.5221 1.08407 10.0013 3.23133C8.35547 0.953935 5.73047 0.411698 3.83464 0.953935C1.6888 1.53955 0.355469 3.38316 0.355469 5.79069C0.355469 11.2564 9.33463 17.8717 9.70963 18.1537C9.79297 18.2188 9.89714 18.2405 9.98047 18.2405C10.0846 18.2405 10.168 18.2188 10.2513 18.1537C10.6263 17.8717 19.6055 11.2564 19.6055 5.79069C19.6471 3.40485 18.293 1.56124 16.1263 0.975625ZM14.2513 13.3603C12.4805 15.1606 10.668 16.5921 10.0013 17.1126C9.33463 16.5921 7.54297 15.1822 5.77214 13.382C2.85547 10.4106 1.33464 7.80782 1.33464 5.79069C1.33464 3.86033 2.35547 2.40713 4.08464 1.92996C4.4388 1.82151 4.83464 1.77814 5.2513 1.77814C6.79297 1.77814 8.54297 2.53727 9.58463 4.42425C9.66797 4.57608 9.83463 4.68453 10.0013 4.68453C10.168 4.68453 10.3346 4.57608 10.418 4.42425C11.6263 2.14686 14.0638 1.47448 15.8763 1.95165C17.6263 2.42882 18.668 3.86033 18.668 5.79069C18.668 7.78613 17.1471 10.4106 14.2513 13.3603Z" fill="#262525"/>
<path id="Vector 73" d="M6.00009 1.5C7.20009 1.5 9.33306 3.16686 9.99973 4.0002C15.5001 -1.49963 18.9997 2.50037 18.9997 6.0002C19.5001 7.5002 13.5001 16.0002 10.0001 17.5002C7.00009 15.5002 1.5 10.5 1 6.5C0.5 2.5 4.50009 1.5 6.00009 1.5Z" fill="#262525"/>
</g>
<defs>
<clipPath id="clip0_1655_9212">
<rect width="20" height="19" fill="white"/>
</clipPath>
</defs>
</svg>
