<svg width="24" height="24" viewBox="0 0 24 24" fill="none" xmlns="http://www.w3.org/2000/svg">
<path d="M20.7306 7.04924C20.4006 6.71924 19.9088 6.55317 19.2681 6.55317H12.872V2.84817L12.8709 2.84067C12.8195 2.47746 12.6213 2.28138 12.2816 2.25781H12.2752H12.2688C11.8242 2.28246 11.5681 2.49996 11.5681 2.85567V6.55424H5.43016C4.13058 6.55424 3.47168 7.21317 3.47168 8.51281V13.8228C3.47168 14.4828 3.63132 14.9639 3.96023 15.2928C4.28914 15.6217 4.77019 15.7814 5.43016 15.7814H11.5681V21.8328C11.5681 22.1885 11.8231 22.406 12.2688 22.4307H12.2752H12.2816C12.6213 22.4071 12.8195 22.21 12.8709 21.8478L12.872 21.8403V15.7814H19.2681C20.5677 15.7814 21.2266 15.1225 21.2266 13.8228V8.51174C21.2266 7.87103 21.0595 7.37924 20.7306 7.04924ZM19.9227 8.68531V13.6503C19.9227 13.931 19.8531 14.1421 19.716 14.2771C19.581 14.41 19.3731 14.4775 19.0967 14.4785H12.873V7.85924H19.0967C19.6452 7.85924 19.9227 8.13674 19.9227 8.68531ZM11.567 7.85817V14.4764H5.60266C5.03161 14.4764 4.77662 14.2214 4.77662 13.6503V8.68424C4.77662 8.40888 4.84412 8.19995 4.97697 8.06496C5.11196 7.92781 5.32303 7.85817 5.60266 7.85817H11.567Z" fill="black"/>
</svg>
