<svg width="22" height="22" viewBox="0 0 22 22" fill="none" xmlns="http://www.w3.org/2000/svg">
<path d="M8.86158 20.6203L8.8574 20.6185C8.72006 20.5615 8.62429 20.4209 8.62429 20.2644V9.89976C8.62429 9.30491 8.38522 8.72309 7.96642 8.30115L0.861325 1.14268C0.751131 1.03166 0.719358 0.867987 0.777911 0.724973C0.83591 0.583312 0.975563 0.490234 1.12499 0.490234H20.3731C20.5214 0.490234 20.6584 0.578346 20.7207 0.726466C20.7793 0.871219 20.7446 1.03573 20.6396 1.13981L20.6367 1.14268L13.5316 8.30115C13.1128 8.72309 12.8738 9.30491 12.8738 9.89976V16.7384C12.8738 16.84 12.8325 16.9389 12.7625 17.0094L9.26287 20.5353C9.19106 20.6077 9.09549 20.6459 8.9992 20.6459C8.94464 20.6459 8.89843 20.636 8.86158 20.6203Z" stroke="black"/>
</svg>
