<svg width="33" height="24" viewBox="0 0 33 24" fill="none" xmlns="http://www.w3.org/2000/svg">
<g id="login_line 1">
<g id="Group">
<path id="Vector" d="M17.6788 23.6156C24.2334 23.6156 29.547 18.4257 29.547 12.0236C29.547 5.62156 24.2334 0.431641 17.6788 0.431641C11.1241 0.431641 5.81055 5.62156 5.81055 12.0236C5.81055 18.4257 11.1241 23.6156 17.6788 23.6156Z" fill="#66AF30"/>
<g id="Group_2">
<g id="FULL_COLOR_ICON_3_">
<g id="TYPE_A_3_">
<g id="Group_3">
<path id="Vector_2" d="M25.7386 11.4236C25.7386 7.89562 22.102 5.01562 17.6545 5.01562C13.1824 5.01562 9.57031 7.89562 9.57031 11.4236C9.57031 14.5916 12.4452 17.2556 16.3276 17.7596C16.5979 17.8076 16.9419 17.9276 17.0402 18.1436C17.1139 18.3356 17.0893 18.6476 17.0647 18.8636C17.0647 18.8636 16.9664 19.4156 16.9419 19.5356C16.9173 19.7276 16.7699 20.3276 17.6545 19.9676C18.5145 19.6076 22.3231 17.2796 24.0186 15.3836C25.1734 14.1116 25.7386 12.8396 25.7386 11.4236Z" fill="white"/>
<g id="Group_4">
<path id="Vector_3" d="M16.0075 9.71875H15.4424C15.3441 9.71875 15.2949 9.79075 15.2949 9.86275V13.2948C15.2949 13.3908 15.3686 13.4388 15.4424 13.4388H16.0075C16.1058 13.4388 16.1549 13.3668 16.1549 13.2948V9.88675C16.1549 9.79075 16.0812 9.71875 16.0075 9.71875Z" fill="#66AF30"/>
<path id="Vector_4" d="M19.915 9.71875H19.3499C19.2516 9.71875 19.2025 9.79075 19.2025 9.86275V11.9027L17.5807 9.76675C17.5807 9.76675 17.5807 9.76675 17.5807 9.74275H16.8681C16.7698 9.74275 16.7207 9.81475 16.7207 9.88675V13.3188C16.7207 13.4148 16.7944 13.4627 16.8681 13.4627H17.4333C17.5316 13.4627 17.5807 13.3908 17.5807 13.3188V11.2788L19.2025 13.4148C19.2025 13.4388 19.227 13.4388 19.2516 13.4627C19.2762 13.4627 19.2762 13.4627 19.3007 13.4627H19.8659C19.9642 13.4627 20.0133 13.3908 20.0133 13.3188V9.88675C20.0625 9.79075 19.9888 9.71875 19.915 9.71875Z" fill="#66AF30"/>
<path id="Vector_5" d="M14.6317 12.5982H13.0836V9.88619C13.0836 9.79019 13.0099 9.74219 12.9362 9.74219H12.3711C12.2728 9.74219 12.2236 9.81419 12.2236 9.88619V13.3182C12.2236 13.3662 12.2482 13.3902 12.2728 13.4142C12.2973 13.4382 12.3465 13.4622 12.3711 13.4622H14.6317C14.73 13.4622 14.7791 13.3902 14.7791 13.3182V12.7662C14.8037 12.6702 14.73 12.5982 14.6317 12.5982Z" fill="#66AF30"/>
<path id="Vector_6" d="M23.035 10.5822C23.1333 10.5822 23.1824 10.5102 23.1824 10.4382V9.88619C23.1824 9.79019 23.1087 9.74219 23.035 9.74219H20.7744C20.7252 9.74219 20.7007 9.76619 20.6761 9.79019C20.6515 9.81419 20.627 9.86219 20.627 9.88619V13.3182C20.627 13.3662 20.6515 13.3902 20.6761 13.4142C20.7007 13.4382 20.7498 13.4622 20.7744 13.4622H23.035C23.1333 13.4622 23.1824 13.3902 23.1824 13.3182V12.7662C23.1824 12.6702 23.1087 12.6222 23.035 12.6222H21.487V12.0462H23.035C23.1333 12.0462 23.1824 11.9742 23.1824 11.9022V11.3502C23.1824 11.2542 23.1087 11.2062 23.035 11.2062H21.487V10.6302H23.035V10.5822Z" fill="#66AF30"/>
</g>
</g>
</g>
</g>
</g>
</g>
</g>
</svg>
