<svg width="34" height="24" viewBox="0 0 34 24" fill="none" xmlns="http://www.w3.org/2000/svg">
<g id="login_fb 1">
<g id="Group">
<path id="Vector" d="M23.9456 12.0953C23.9456 5.71134 18.6999 0.527344 12.2399 0.527344C5.77989 0.527344 0.53418 5.71134 0.53418 12.0953C0.53418 17.8793 4.80847 22.6553 10.4185 23.5193V15.4553H7.43132V12.0953H10.3942V9.55134C10.3942 6.64734 12.1428 5.03934 14.8142 5.03934C16.1013 5.03934 17.437 5.25534 17.437 5.25534V8.11134H15.9556C14.4985 8.11134 14.037 8.99934 14.037 9.91134V12.0713H17.2913L16.8056 15.4553H14.0613V23.5433C19.6713 22.6553 23.9456 17.8793 23.9456 12.0953Z" fill="#2F6DB6"/>
<path id="Vector_2" d="M16.8059 15.4545L17.3159 12.1185H14.0616V9.9585C14.0616 9.0465 14.5231 8.1585 15.9802 8.1585H17.4616V5.2785C17.4616 5.2785 16.1259 5.0625 14.8388 5.0625C12.1674 5.0625 10.4188 6.6705 10.4188 9.5745V12.1185H7.43164V15.4545H10.3945V23.5425C11.0016 23.6385 11.6088 23.6865 12.2159 23.6865C12.8474 23.6865 13.4545 23.6385 14.0374 23.5425V15.4545H16.8059Z" fill="white"/>
</g>
</g>
</svg>
