<svg width="35" height="24" viewBox="0 0 35 24" fill="none" xmlns="http://www.w3.org/2000/svg">
<g id="login_google 1">
<g id="GOOGLE_L_001_00000017480500253460140680000015761338590514329270_">
<g id="BACK_SHADOW_00000002372627717187334980000008828144308839028104_">
<g id="Group">
<path id="Vector" fill-rule="evenodd" clip-rule="evenodd" d="M22.5755 18.4082C22.0755 19.2002 21.5005 19.9202 20.7505 20.5202C19.5005 21.6722 18.0255 22.4162 16.3505 22.8242C12.4255 23.7842 8.82546 23.1842 5.60046 20.7362C4.30046 19.7522 3.25046 18.5042 2.50046 17.0402C0.850461 14.0882 0.800461 9.91217 2.50046 6.93617C3.67546 4.41617 6.77546 1.56017 11.0005 0.912174C14.6005 0.360174 17.8255 1.17617 20.6005 3.48017C20.7755 3.62417 20.8255 3.72017 20.6255 3.88817C17.3505 6.96017 17.6005 6.93617 17.3755 6.72017C14.0755 3.81617 8.20046 4.92017 6.37546 9.76817C5.87546 11.2322 5.90046 12.6962 6.35046 14.1602C6.70046 15.0242 7.15046 15.8162 7.77546 16.5122C10.4005 19.2962 14.2005 19.3922 17.0755 17.7122C18.4005 16.7282 18.9255 15.8162 19.3005 14.5922C19.3755 14.3522 19.3505 14.2562 19.0255 14.2562C17.1255 14.2802 15.2505 14.2562 13.3505 14.2562C12.9505 14.2562 12.9505 14.2562 12.9505 13.8482C12.9505 12.6242 12.9505 11.4002 12.9505 10.1522C12.9505 9.91217 13.0005 9.81617 13.2755 9.81617C16.7505 9.81617 20.2505 9.81617 23.7255 9.81617C23.9255 9.81617 24.0255 9.84017 24.0755 10.0562C24.5005 13.0322 24.1505 15.8402 22.5755 18.4082Z" fill="white"/>
</g>
</g>
<g id="LOGO_00000016057197458294758910000003103979488836230306_">
<path id="Vector_2" fill-rule="evenodd" clip-rule="evenodd" d="M22.5512 18.4078C22.0512 19.1998 21.4762 19.9198 20.7512 20.5198C16.6762 17.4718 17.4512 18.0718 17.0762 17.7358C18.4012 16.7518 18.9262 15.8398 19.3012 14.6158C19.3762 14.3758 19.3512 14.2798 19.0262 14.2798C17.1262 14.3038 15.2512 14.2798 13.3512 14.2798C12.9512 14.2798 12.9512 14.2798 12.9512 13.8718C12.9512 12.6478 12.9512 11.4238 12.9512 10.1758C12.9512 9.93584 13.0012 9.83984 13.2762 9.83984C16.7512 9.83984 20.2512 9.83984 23.7262 9.83984C23.9262 9.83984 24.0262 9.86384 24.0762 10.0798C24.5012 13.0318 24.1512 15.8398 22.5512 18.4078Z" fill="#6383BE"/>
<path id="Vector_3" fill-rule="evenodd" clip-rule="evenodd" d="M20.751 20.5196C19.501 21.6716 18.026 22.4156 16.351 22.8236C12.426 23.7836 8.82598 23.1836 5.60098 20.7356C4.27598 19.7516 3.25098 18.5036 2.50098 17.0396C3.77598 16.0796 5.05098 15.1436 6.32598 14.1836C6.67598 15.0476 7.12598 15.8396 7.75098 16.5356C10.376 19.3196 14.176 19.4156 17.051 17.7356C17.426 18.0476 16.651 17.4716 20.751 20.5196Z" fill="#4EAF4B"/>
<path id="Vector_4" fill-rule="evenodd" clip-rule="evenodd" d="M6.3258 14.1849C5.0508 15.1209 3.7758 16.0809 2.5008 17.0409C0.850799 14.0889 0.825799 9.96094 2.5008 6.96094C6.7508 10.0809 6.1008 9.62494 6.3758 9.76894C5.8508 11.2329 5.8758 12.7209 6.3258 14.1849Z" fill="#F5C722"/>
<path id="Vector_5" fill-rule="evenodd" clip-rule="evenodd" d="M20.6254 3.88817C17.3504 6.96017 17.6004 6.93617 17.3754 6.72017C14.0754 3.81617 8.20039 4.92017 6.37539 9.76817C6.12539 9.60017 6.77539 10.0802 2.52539 6.93617C3.70039 4.44017 6.77539 1.56017 11.0004 0.912174C14.6004 0.360174 17.8254 1.17617 20.6004 3.48017C20.7754 3.62417 20.8254 3.69617 20.6254 3.88817Z" fill="#D53331"/>
</g>
</g>
</g>
</svg>
