<svg width="29" height="29" viewBox="0 0 29 29" fill="none" xmlns="http://www.w3.org/2000/svg">
<g id="pen 1">
<g id="Group">
<g id="Group_2">
<path id="XMLID_6250_" d="M8.81077 23.6278C10.0096 23.0362 11.2071 22.4458 12.4045 21.8542C12.4511 21.8697 12.4978 21.8749 12.5431 21.8723C12.5495 21.8723 12.556 21.8723 12.5638 21.8723C12.5677 21.871 12.5715 21.8723 12.5754 21.871C12.6738 21.8671 12.7735 21.827 12.8589 21.7312C16.0669 18.1774 19.2762 14.6236 22.4842 11.0685C22.9399 10.5649 23.3943 10.06 23.85 9.55635C23.8836 9.52269 23.9069 9.48903 23.9251 9.45407C24.6591 8.4559 24.6435 7.07064 23.6778 6.19934C22.7185 5.33323 21.1857 5.4122 20.3209 6.37153C17.1129 9.92532 13.9037 13.4791 10.6957 17.0342C10.2413 17.5378 9.7856 18.0427 9.3312 18.5464C9.21727 18.6719 9.19527 18.8545 9.25741 19.0034C9.13313 19.3374 9.00885 19.6714 8.88457 20.0054C8.82501 20.1634 8.76676 20.3226 8.70721 20.4805C8.36544 21.3972 8.02496 22.3138 7.68319 23.2291C7.68319 23.2291 7.39838 23.9489 7.65212 24.0084C7.90327 24.068 8.81077 23.6278 8.81077 23.6278ZM23.4409 8.60867C22.7237 7.96135 22.0065 7.31273 21.288 6.66541C22.4829 5.88215 24.0338 7.2959 23.4409 8.60867ZM19.5934 8.45979C19.952 8.06233 20.3119 7.66488 20.6705 7.26742C21.4213 7.94582 22.1709 8.62291 22.9218 9.30001C19.8096 12.7476 16.6974 16.1953 13.5839 19.6429C13.2253 20.0404 12.8654 20.4378 12.5068 20.8353C11.756 20.1569 11.0064 19.4798 10.2555 18.8027C13.369 15.3551 16.4812 11.9074 19.5934 8.45979ZM9.86068 19.8319C10.4148 20.333 10.9701 20.834 11.5255 21.335C11.0155 21.5862 10.5067 21.8373 9.99661 22.0898C9.75323 21.8697 9.50985 21.6496 9.26647 21.4295C9.46454 20.8961 9.66261 20.364 9.86068 19.8319Z" fill="#272525"/>
</g>
</g>
</g>
</svg>
