<svg width="26" height="26" viewBox="0 0 26 26" fill="none" xmlns="http://www.w3.org/2000/svg">
<g id="shopcart 1">
<g id="Group">
<g id="Group_2">
<g id="Group_3">
<path id="Vector" d="M9.05825 23.3021C9.50247 23.3021 9.86258 22.942 9.86258 22.4977C9.86258 22.0535 9.50247 21.6934 9.05825 21.6934C8.61402 21.6934 8.25391 22.0535 8.25391 22.4977C8.25391 22.942 8.61402 23.3021 9.05825 23.3021Z" fill="black"/>
<path id="Vector_2" d="M20.3122 23.3021C20.7564 23.3021 21.1165 22.942 21.1165 22.4977C21.1165 22.0535 20.7564 21.6934 20.3122 21.6934C19.8679 21.6934 19.5078 22.0535 19.5078 22.4977C19.5078 22.942 19.8679 23.3021 20.3122 23.3021Z" fill="black"/>
<path id="Vector_3" d="M21.5183 20.0857H9.06791C8.78239 20.0857 8.52472 19.9395 8.37732 19.6946C8.23108 19.4496 8.22411 19.1525 8.35991 18.9006L10.1021 15.6646H21.5183C21.711 15.6646 21.877 15.5276 21.913 15.3372L23.5216 6.89536C23.5437 6.77813 23.5124 6.65625 23.4369 6.56339C23.3603 6.4717 23.2466 6.4183 23.127 6.4183H6.9381L6.01305 3.9808C5.83663 3.51536 5.38281 3.20312 4.88605 3.20312H2.22581C2.00412 3.20312 1.82422 3.38304 1.82422 3.60473C1.82422 3.82643 2.00412 4.00634 2.22581 4.00634H4.88605C5.05202 4.00634 5.20291 4.1108 5.2621 4.26518L9.42192 15.2316L7.65191 18.5176C7.38147 19.0202 7.39424 19.6145 7.68673 20.1043C7.97921 20.5953 8.49571 20.8878 9.06675 20.8878H21.5183C21.74 20.8878 21.9199 20.7079 21.9199 20.4862C21.9199 20.2645 21.7412 20.0857 21.5183 20.0857ZM8.31 10.0362H11.0677V12.0466H9.07256L8.31 10.0362ZM11.8721 10.0362H14.6855V12.0466H11.8721V10.0362ZM18.3033 12.0466H15.4899V10.0362H18.3033V12.0466ZM19.1076 10.0362H22.1056L21.7226 12.0466H19.1076V10.0362ZM18.3033 12.8498V14.8602H15.4899V12.8498H18.3033ZM15.4899 9.23304V7.22268H18.3033V9.23304H15.4899ZM14.6855 9.23304H11.8721V7.22268H14.6855V9.23304ZM14.6855 12.8498V14.8602H11.8721V12.8498H14.6855ZM21.1864 14.8602H19.1076V12.8498H21.5694L21.1864 14.8602ZM22.2577 9.23304H19.1065V7.22268H22.6407L22.2577 9.23304ZM11.0677 7.22268V9.23304H8.00591L7.24335 7.22268H11.0677ZM9.37781 12.8498H11.0689V14.8602H10.1404L9.37781 12.8498Z" fill="black"/>
</g>
</g>
</g>
</g>
</svg>
